<?xml version="1.0" encoding="UTF-8" standalone="no"?><!-- Made with <3 January 2017 by Heather and AJ --><svg xmlns="http://www.w3.org/2000/svg" width="170" height="20"><linearGradient id="b" x2="0" y2="100%"><stop offset="0" stop-color="#bbb" stop-opacity=".1"/><stop offset="1" stop-opacity=".1"/></linearGradient><clipPath id="a"><rect width="170" height="20" rx="3" fill="#fff"/></clipPath><g clip-path="url(#a)"><path fill="#555" d="M0 0h55v20H0z"/><path fill="#5cc385" d="M55 0h115v20H55z"/><path fill="url(#b)" d="M0 0h175v20H0z"/></g><g fill="#fff" text-anchor="middle" font-family="DejaVu Sans,Verdana,Geneva,sans-serif" font-size="11"><text x="27.5" y="15" fill="#010101" fill-opacity=".3">made at</text><text x="27.5" y="14">made at</text><text x="118.55389" y="15" fill="#010101" fill-opacity=".3">Recurse Center</text><text x="119.31736" y="14">Recurse Center</text><g transform="translate(18.977 2.01) scale(.71723)"><rect height="1" width="12" y="1.5838358" x="59.913174" class="rc-logo__primary" fill="#2a2d2d"/><rect height="10" width="1" y="1.5838358" x="59.913174" class="rc-logo__primary" fill="#2a2d2d"/><rect height="10" width="1" y="1.5838358" x="70.913177" class="rc-logo__primary" fill="#2a2d2d"/><rect height="1" width="12" y="10.583836" x="59.913174" class="rc-logo__primary" fill="#2a2d2d"/><rect height="3" width="4" y="10.583836" x="63.913174" class="rc-logo__primary" fill="#2a2d2d"/><rect height="1" width="10" y="12.583836" x="60.913174" class="rc-logo__primary" fill="#2a2d2d"/><rect height="4" width="1" y="12.583836" x="60.913174" class="rc-logo__primary" fill="#2a2d2d"/><rect height="4" width="1" y="12.583836" x="69.913177" class="rc-logo__primary" fill="#2a2d2d"/><rect height="4" width="10" y="15.583836" x="60.913174" class="rc-logo__primary" fill="#2a2d2d"/><rect height="3" width="2" y="13.583836" x="59.913174" class="rc-logo__primary" fill="#2a2d2d"/><rect height="3" width="2" y="13.583836" x="69.913177" class="rc-logo__primary" fill="#2a2d2d"/><rect height="3" width="2" y="13.583836" x="69.913177" class="rc-logo__primary" fill="#2a2d2d"/><rect height="2" width="2" y="12.583836" x="60.913174" class="rc-logo__primary" fill="#2a2d2d"/><rect height="2" width="1" y="12.583836" x="63.913174" class="rc-logo__primary" fill="#2a2d2d"/><rect height="2" width="1" y="12.583836" x="65.913177" class="rc-logo__primary" fill="#2a2d2d"/><rect height="2" width="1" y="12.583836" x="67.913177" class="rc-logo__primary" fill="#2a2d2d"/><rect height="2" width="2" y="14.583836" x="68.913177" class="rc-logo__primary" fill="#2a2d2d"/><rect height="2" width="1" y="14.583836" x="66.913177" class="rc-logo__primary" fill="#2a2d2d"/><rect height="2" width="1" y="14.583836" x="64.913177" class="rc-logo__primary" fill="#2a2d2d"/><rect height="2" width="1" y="14.583836" x="62.913174" class="rc-logo__primary" fill="#2a2d2d"/><rect height="8" width="10" y="2.5838358" x="60.913174" class="rc-logo__secondary"/><rect height="1" width="1" y="14.583836" x="61.913174" class="rc-logo__secondary"/><rect height="1" width="1" y="13.583836" x="62.913174" class="rc-logo__secondary"/><rect height="1" width="1" y="14.583836" x="63.913174" class="rc-logo__secondary"/><rect height="1" width="1" y="13.583836" x="64.913177" class="rc-logo__secondary"/><rect height="1" width="1" y="14.583836" x="65.913177" class="rc-logo__secondary"/><rect height="1" width="1" y="13.583836" x="66.913177" class="rc-logo__secondary"/><rect height="1" width="1" y="14.583836" x="67.913177" class="rc-logo__secondary"/><rect height="1" width="1" y="13.583836" x="68.913177" class="rc-logo__secondary"/><rect height="6" width="8" y="3.5838358" x="61.913174" class="rc-logo__primary" fill="#2a2d2d"/><rect height="1" width="1" y="4.5838361" x="61.913174" class="rc-logo__accent rc-logo__pixel1" fill="#5cc385"/><rect height="1" width="1" y="4.5838361" x="63.913174" class="rc-logo__accent rc-logo__pixel2" fill="#5cc385"/><rect height="1" width="1" y="4.5838361" x="65.913177" class="rc-logo__accent rc-logo__pixel3" fill="#5cc385"/><rect height="1" width="2" y="6.5838361" x="62.913174" class="rc-logo__accent rc-logo__pixel4" fill="#5cc385"/><rect height="1" width="2" y="6.5838361" x="65.913177" class="rc-logo__accent rc-logo__pixel5" fill="#5cc385"/></g></g></svg>
